<svg width="109" height="109" viewBox="0 0 109 109" fill="none" xmlns="http://www.w3.org/2000/svg">
<rect width="109" height="109" fill="#AE2220"/>
<path d="M34.3265 53.0703C40.9007 53.0703 45.9535 58.6527 45.9535 65.156V68.946C41.0267 67.8746 36.4034 72.0431 36.8953 77.1433H34.3267C27.7705 77.1433 22.7003 71.6695 22.7003 65.156C22.7003 58.6533 27.7441 53.0703 34.3267 53.0703H34.3265ZM14.3735 65.156C14.3735 76.1846 23.4136 85.0853 34.3265 85.0853H54.3297V65.156C54.3297 54.1266 45.2542 45.1291 34.3265 45.1291C23.3939 45.1291 14.3735 54.1359 14.3735 65.156H14.3735Z" fill="white"/>
<path d="M65.4093 62.2211C70.4183 62.5919 74.2906 57.8781 73.3074 53.073H77.0205C83.5664 53.073 88.6332 58.5463 88.6332 65.058C88.6332 71.5605 83.5868 77.1443 77.0205 77.1443C70.4551 77.1443 65.4093 71.5591 65.4093 65.058V62.2211ZM76.9731 32.2991H80.7605C85.1077 32.2991 88.5856 28.7205 88.5856 24.3571H76.9731C66.0236 24.3571 56.9937 33.1907 56.9937 44.2846L57.044 65.058C57.044 76.0834 66.1081 85.0855 77.0204 85.0855C87.9403 85.0855 96.9495 76.0778 96.9495 65.058C96.9495 54.028 87.9212 45.1327 77.0204 45.1327H65.262C65.262 38.2633 69.8164 32.2991 76.9729 32.2991H76.9731Z" fill="white"/>
<path d="M52.2378 48.1115C51.3216 44.6729 49.4138 41.3887 47.4819 38.4082C43.315 31.9823 37.8415 27.7318 28.9492 26.544C28.1916 26.443 27.409 26.3641 26.6005 26.3078C27.274 26.2117 28.6739 26.3016 28.9541 26.3249C41.604 27.3699 50.7014 35.5776 52.7952 48.1117C52.8341 46.036 53.1132 44.1225 52.3421 39.8623C51.5708 35.6024 46.1761 28.637 40.3087 26.2588C32.8421 23.2323 24.2112 23.3557 21.8289 25.595C26.476 28.477 28.1309 33.1546 29.3356 37.4774C29.8929 39.4744 31.8262 39.8006 34.5028 39.9941C43.0214 40.6087 46.7344 42.1382 52.2379 48.1117L52.2378 48.1115Z" fill="white"/>
</svg>
